<svg width="1269" height="156" viewBox="0 0 1269 156" fill="none" xmlns="http://www.w3.org/2000/svg">
<g clip-path="url(#clip0_1312_27330)">
<path d="M1241.03 47.1973C1248.57 47.1973 1254.76 48.7393 1259.61 51.8224C1264.47 54.8482 1266.95 59.3587 1267.07 65.3539V66.3814H1249.34V66.039C1249.34 64.3263 1248.71 62.8985 1247.46 61.7567C1246.2 60.6148 1244.29 60.0439 1241.72 60.0439C1239.2 60.0439 1237.26 60.415 1235.89 61.1575C1234.58 61.8996 1233.92 62.8129 1233.92 63.8979C1233.92 65.4394 1234.84 66.5813 1236.67 67.3238C1238.49 68.066 1241.43 68.8367 1245.49 69.6362C1250.22 70.6064 1254.11 71.6345 1257.13 72.7194C1260.22 73.747 1262.9 75.4597 1265.18 77.8577C1267.47 80.2557 1268.64 83.5104 1268.69 87.6212C1268.69 94.587 1266.33 99.754 1261.58 103.123C1256.91 106.491 1250.62 108.175 1242.74 108.175C1233.55 108.175 1226.39 106.634 1221.25 103.551C1216.17 100.467 1213.62 95.015 1213.62 87.1928H1231.53C1231.53 90.1617 1232.29 92.1603 1233.84 93.1879C1235.38 94.1586 1237.78 94.6439 1241.03 94.6439C1243.43 94.6439 1245.4 94.3871 1246.94 93.8731C1248.54 93.3591 1249.34 92.3029 1249.34 90.7043C1249.34 89.277 1248.45 88.2208 1246.68 87.5356C1244.97 86.7931 1242.15 86.0223 1238.21 85.2232C1233.41 84.1952 1229.44 83.139 1226.3 82.0545C1223.16 80.9122 1220.42 79.0569 1218.08 76.4873C1215.74 73.9181 1214.57 70.4353 1214.57 66.039C1214.57 59.5873 1217.05 54.8482 1222.02 51.8224C1227.04 48.7393 1233.38 47.1973 1241.03 47.1973Z" fill="#E8E84D"/>
<path d="M1186.01 107.141V85.9019C1186.01 83.2754 1186.09 80.592 1186.27 77.8512C1186.5 75.0535 1186.73 72.7124 1186.95 70.8285C1187.18 68.9445 1187.32 67.7453 1187.38 67.2313H1187.04L1176.16 107.141H1161.35L1150.38 67.3169H1150.04C1150.1 67.8309 1150.24 69.0301 1150.47 70.9141C1150.75 72.7411 1151.01 75.0535 1151.24 77.8512C1151.47 80.592 1151.58 83.2754 1151.58 85.9019V107.141H1134.2V48.2188H1160.92L1169.82 82.2191H1170.17L1178.99 48.2188H1204.77V107.141H1186.01Z" fill="#E8E84D"/>
<path d="M1073.59 48.2188H1124.54V62.3498H1092.51V70.4861H1119.92V84.0175H1092.51V93.0102H1125.14V107.141H1073.59V48.2188Z" fill="#E8E84D"/>
<path d="M1045.7 63.2918V107.141H1026.77V63.2918H1007.42V48.2188H1064.97V63.2918H1045.7Z" fill="#E8E84D"/>
<path d="M974.72 47.1973C982.258 47.1973 988.449 48.7393 993.302 51.8224C998.156 54.8482 1000.64 59.3587 1000.76 65.3539V66.3814H983.026V66.039C983.026 64.3263 982.399 62.8985 981.144 61.7567C979.885 60.6148 977.974 60.0439 975.406 60.0439C972.892 60.0439 970.951 60.415 969.58 61.1575C968.267 61.8996 967.611 62.8129 967.611 63.8979C967.611 65.4394 968.525 66.5813 970.353 67.3238C972.177 68.066 975.119 68.8367 979.175 69.6362C983.912 70.6064 987.793 71.6345 990.822 72.7194C993.905 73.747 996.585 75.4597 998.87 77.8577C1001.16 80.2557 1002.32 83.5104 1002.38 87.6212C1002.38 94.587 1000.01 99.754 995.272 103.123C990.593 106.491 984.31 108.175 976.432 108.175C967.241 108.175 960.073 106.634 954.937 103.551C949.855 100.467 947.312 95.015 947.312 87.1928H965.213C965.213 90.1617 965.982 92.1603 967.523 93.1879C969.065 94.1586 971.467 94.6439 974.72 94.6439C977.118 94.6439 979.087 94.3871 980.629 93.8731C982.229 93.3591 983.026 92.3029 983.026 90.7043C983.026 89.277 982.141 88.2208 980.371 87.5356C978.659 86.7931 975.834 86.0223 971.895 85.2232C967.095 84.1952 963.127 83.139 959.99 82.0545C956.849 80.9122 954.106 79.0569 951.767 76.4873C949.427 73.9181 948.256 70.4353 948.256 66.039C948.256 59.5873 950.741 54.8482 955.706 51.8224C960.73 48.7393 967.07 47.1973 974.72 47.1973Z" fill="#E8E84D"/>
<path d="M923.566 107.141H904.639V84.2743L881.258 48.2188H903.01L914.317 67.8309H914.657L925.964 48.2188H946.603L923.566 84.2743V107.141Z" fill="#E8E84D"/>
<path d="M849.939 47.1973C857.477 47.1973 863.672 48.7393 868.525 51.8224C873.378 54.8482 875.859 59.3587 875.975 65.3539V66.3814H858.245V66.039C858.245 64.3263 857.618 62.8985 856.363 61.7567C855.108 60.6148 853.193 60.0439 850.625 60.0439C848.111 60.0439 846.17 60.415 844.799 61.1575C843.486 61.8996 842.829 62.8129 842.829 63.8979C842.829 65.4394 843.744 66.5813 845.572 67.3238C847.4 68.066 850.338 68.8367 854.393 69.6362C859.13 70.6064 863.015 71.6345 866.04 72.7194C869.124 73.747 871.808 75.4597 874.089 77.8577C876.374 80.2557 877.546 83.5104 877.6 87.6212C877.6 94.587 875.232 99.754 870.495 103.123C865.812 106.491 859.529 108.175 851.651 108.175C842.46 108.175 835.296 106.634 830.156 103.551C825.074 100.467 822.531 95.015 822.531 87.1928H840.432C840.432 90.1617 841.205 92.1603 842.746 93.1879C844.288 94.1586 846.685 94.6439 849.939 94.6439C852.337 94.6439 854.306 94.3871 855.848 93.8731C857.447 93.3591 858.245 92.3029 858.245 90.7043C858.245 89.277 857.36 88.2208 855.59 87.5356C853.878 86.7931 851.053 86.0223 847.113 85.2232C842.318 84.1952 838.35 83.139 835.209 82.0545C832.067 80.9122 829.329 79.0569 826.986 76.4873C824.646 73.9181 823.474 70.4353 823.474 66.039C823.474 59.5873 825.959 54.8482 830.925 51.8224C835.953 48.7393 842.289 47.1973 849.939 47.1973Z" fill="#E8E84D"/>
<path d="M795.551 107.141V90.0977H813.709V107.141H795.551Z" fill="#E8E84D"/>
<path d="M759.607 47.1973C767.144 47.1973 773.34 48.7393 778.193 51.8224C783.042 54.8482 785.527 59.3587 785.643 65.3539V66.3814H767.913V66.039C767.913 64.3263 767.286 62.8985 766.031 61.7567C764.772 60.6148 762.86 60.0439 760.293 60.0439C757.779 60.0439 755.838 60.415 754.467 61.1575C753.154 61.8996 752.497 62.8129 752.497 63.8979C752.497 65.4394 753.412 66.5813 755.24 67.3238C757.064 68.066 760.006 68.8367 764.061 69.6362C768.798 70.6064 772.683 71.6345 775.708 72.7194C778.792 73.747 781.476 75.4597 783.757 77.8577C786.042 80.2557 787.214 83.5104 787.268 87.6212C787.268 94.587 784.9 99.754 780.163 103.123C775.48 106.491 769.197 108.175 761.319 108.175C752.128 108.175 744.96 106.634 739.824 103.551C734.742 100.467 732.199 95.015 732.199 87.1928H750.1C750.1 90.1617 750.873 92.1603 752.414 93.1879C753.956 94.1586 756.353 94.6439 759.607 94.6439C762.004 94.6439 763.974 94.3871 765.516 93.8731C767.115 93.3591 767.913 92.3029 767.913 90.7043C767.913 89.277 767.028 88.2208 765.258 87.5356C763.546 86.7931 760.721 86.0223 756.781 85.2232C751.986 84.1952 748.018 83.139 744.877 82.0545C741.735 80.9122 738.997 79.0569 736.654 76.4873C734.314 73.9181 733.142 70.4353 733.142 66.039C733.142 59.5873 735.627 54.8482 740.593 51.8224C745.616 48.7393 751.957 47.1973 759.607 47.1973Z" fill="#E8E84D"/>
<path d="M704.608 107.141V85.9019C704.608 83.2754 704.695 80.592 704.866 77.8512C705.094 75.0535 705.323 72.7124 705.551 70.8285C705.78 68.9445 705.921 67.7453 705.979 67.2313H705.639L694.76 107.141H679.943L668.981 67.3169H668.641C668.695 67.8309 668.84 69.0301 669.069 70.9141C669.351 72.7411 669.609 75.0535 669.837 77.8512C670.066 80.592 670.182 83.2754 670.182 85.9019V107.141H652.797V48.2188H679.515L688.424 82.2191H688.764L697.586 48.2188H723.365V107.141H704.608Z" fill="#E8E84D"/>
<path d="M626.815 107.141L624.334 98.8337H603.691L601.21 107.141H581.855L603.35 48.2188H625.36L646.855 107.141H626.815ZM607.634 85.6447H620.395L614.229 64.6621H613.884L607.634 85.6447Z" fill="#E8E84D"/>
<path d="M525.527 48.2188H576.487V62.3498H544.454V70.4861H571.862V84.0175H544.454V93.0102H577.085V107.141H525.527V48.2188Z" fill="#E8E84D"/>
<path d="M514.788 66.2893C514.788 69.8865 513.816 73.1408 511.875 76.0528C509.935 78.9648 507.109 81.1055 503.399 82.4759L516.5 107.141H495.263L484.813 85.6447H477.79V107.141H458.863V48.2188H494.918C499.144 48.2188 502.742 49.0465 505.709 50.7023C508.734 52.3008 510.99 54.4993 512.478 57.297C514.02 60.0374 514.788 63.035 514.788 66.2893ZM495.521 67.0601C495.521 65.5185 495.005 64.2337 493.979 63.2062C492.948 62.1786 491.694 61.6646 490.21 61.6646H477.79V72.5412H490.21C491.694 72.5412 492.948 72.0277 493.979 70.9997C495.005 69.9152 495.521 68.6017 495.521 67.0601Z" fill="#E8E84D"/>
<path d="M417.719 48.2188C438.333 48.2188 448.638 58.0392 448.638 77.68C448.638 97.3208 438.333 107.141 417.719 107.141H392.199V48.2188H417.719ZM411.126 93.0102H417.379C425.315 93.0102 429.283 88.7565 429.283 80.2492V75.1108C429.283 66.6035 425.315 62.3498 417.379 62.3498H411.126V93.0102Z" fill="#E8E84D"/>
<path d="M362.105 107.141H343.177V84.2743L319.797 48.2188H341.55L352.855 67.8309H353.198L364.503 48.2188H385.143L362.105 84.2743V107.141Z" fill="#E8E84D"/>
<path d="M305.646 107.141L303.163 98.8337H282.523L280.039 107.141H260.684L282.18 48.2188H304.191L325.687 107.141H305.646ZM286.462 85.6447H299.223L293.057 64.6621H292.714L286.462 85.6447Z" fill="#E8E84D"/>
<path d="M228.697 48.2188C249.309 48.2188 259.615 58.0392 259.615 77.68C259.615 97.3208 249.309 107.141 228.697 107.141H203.176V48.2188H228.697ZM222.103 93.0102H228.355C236.291 93.0102 240.259 88.7565 240.259 80.2492V75.1108C240.259 66.6035 236.291 62.3498 228.355 62.3498H222.103V93.0102Z" fill="#E8E84D"/>
<path fill-rule="evenodd" clip-rule="evenodd" d="M48.7414 3.47619C42.3 8.63012 31.0239 17.5903 30.1822 18.2234C29.7581 18.5423 29.4111 18.8857 29.4111 18.9864C29.4111 19.1892 34.7757 24.434 35.1185 24.5662C35.2374 24.612 37.007 23.2734 39.0515 21.5918L42.7683 18.5343L44.3772 20.1119C45.2618 20.9795 47.1641 22.8608 48.6039 24.2924L51.2221 26.8953L56.1518 26.8841C65.0323 26.8644 66.6154 26.5573 68.8173 24.4274C71.0141 22.3028 70.7798 20.9625 68.0855 20.2444C67.6256 20.1218 65.0527 19.9289 62.3676 19.8157C57.7029 19.6191 57.4341 19.5798 56.3184 18.9297C55.0731 18.2038 49.9664 13.5713 49.8799 13.0888C49.8159 12.7338 54.3721 8.97201 55.9187 8.10303C56.9803 7.50651 57.3032 7.46329 61.2561 7.38858L65.464 7.30913L65.1582 15.9754H73.7732V13.858C73.7732 12.6931 73.8438 9.15043 73.9298 5.98545L74.0861 0.230469L52.7782 0.246206L48.7414 3.47619ZM82.4322 15.8485H90.0234L89.8464 7.34117H94.1038C97.2792 7.34117 98.6276 7.43861 99.4112 7.72474C100.652 8.17753 106.155 12.545 106.155 13.0763C106.155 13.5939 100.919 18.4166 99.6315 19.0846C98.6716 19.5825 98.0238 19.657 93.2262 19.8203C87.989 19.9983 86.5716 20.2107 85.4722 20.9816C84.5734 21.6121 84.7733 22.4483 86.2081 24.0573C86.9149 24.85 87.9267 25.8415 88.4564 26.2605C88.9858 26.6795 89.4217 27.1386 89.4246 27.2806C89.4279 27.4226 88.2562 28.7922 86.821 30.3236C85.3857 31.8553 84.2115 33.173 84.2115 33.2518C84.2115 33.3306 86.0797 35.084 88.3629 37.1478C90.6462 39.2119 92.5144 40.9927 92.5144 41.1052C92.5144 41.2176 91.85 41.9236 91.0377 42.6736C90.2261 43.4236 88.5412 45.0217 87.2942 46.2255C82.8951 50.4721 82.7422 50.8112 82.839 56.0999L82.9067 59.7818L100.476 59.9152L104.146 56.2374C106.164 54.2147 107.924 52.5568 108.057 52.5522C108.189 52.548 109.896 53.9699 111.852 55.7126C113.807 57.4549 115.534 58.8552 115.689 58.8236C115.844 58.7921 120.558 53.938 126.165 48.0367C131.771 42.1355 136.463 37.3073 136.591 37.3073C136.862 37.3073 136.864 37.3192 137.835 44.2526L138.577 49.5471L136.481 51.8711C135.329 53.1493 133.192 55.5094 131.732 57.1154C128.187 61.0168 125.49 64.4419 125.49 65.0419C125.49 65.3265 126.359 66.4185 127.566 67.6501C129.36 69.4805 137.35 76.7209 141.442 80.225C142.176 80.8537 142.883 81.6536 143.014 82.0026C143.252 82.6384 144.942 94.4275 144.942 95.4518C144.942 96.1258 144.746 96.0148 142.895 94.2937C140.414 91.9859 133.288 85.4976 129.76 82.3321C127.868 80.6351 124.185 77.2952 121.575 74.9105C118.966 72.5263 116.719 70.575 116.582 70.575C116.445 70.575 114.906 72.1178 113.162 74.0034C111.418 75.8887 109.891 77.4319 109.769 77.4319C109.589 77.4319 104.562 72.8928 104.139 72.3484C104.073 72.2645 103.297 71.5444 102.412 70.7474L100.804 69.2993L83.144 69.4323L83.0713 72.8603C82.9857 76.9088 83.2924 78.9257 84.209 80.3393C84.9112 81.4234 87.6827 84.3624 91.7528 88.3406C93.0953 89.6524 94.1628 90.8703 94.1254 91.0469C94.0872 91.2239 91.9481 93.6522 89.371 96.4436C86.7939 99.2351 84.6856 101.685 84.6856 101.887C84.6856 102.088 86.0356 103.611 87.6852 105.27C91.3493 108.955 91.5845 109.176 91.8492 109.176C92.3029 109.176 101.045 100.766 104.029 97.4579C107.039 94.1225 108.883 91.87 108.883 91.5313C108.883 91.3722 108.003 90.3928 106.926 89.3549C102.405 84.9952 97.9033 80.3443 97.6665 79.7879C97.4633 79.3113 97.4944 79.1031 97.8181 78.7558C98.173 78.3755 98.9076 78.3099 103.613 78.2372L109.002 78.1541L111.515 80.2691C117.284 85.1228 126.088 92.7409 126.158 92.9396C126.2 93.0576 125.132 94.4383 123.786 96.0078C122.439 97.5776 120.83 99.4553 120.211 100.182C119.591 100.907 119.084 101.676 119.084 101.89C119.084 102.105 120.498 103.585 122.227 105.181C123.956 106.777 125.851 108.553 126.438 109.129L127.506 110.176L128.347 109.231C128.809 108.712 130.605 106.515 132.337 104.351C134.069 102.185 135.575 100.38 135.683 100.338C135.792 100.296 138.522 102.724 141.751 105.735C144.98 108.744 147.706 111.207 147.809 111.207C147.98 111.207 151.54 106.687 154.223 103.063L155.319 101.582L155.014 99.6016C154.735 97.7895 153.485 89.9794 152.257 82.3837C151.986 80.7075 151.644 78.5418 151.497 77.5703L151.229 75.8043L149.312 74.1418C148.257 73.2277 145.508 70.88 143.203 68.9254C140.898 66.9699 139.012 65.2904 139.012 65.1923C139.012 65.0943 139.29 64.6941 139.631 64.3027C139.971 63.9113 141.012 62.6863 141.944 61.5798C142.876 60.4733 144.421 58.645 145.379 57.5164C146.337 56.3883 147.268 55.2331 147.447 54.9502C147.733 54.5006 147.598 53.3288 146.38 45.6807C144.5 33.8727 144.459 33.634 144.274 33.3576C143.942 32.8625 138.721 28.5432 137.264 27.5582C136.297 26.9052 135.118 26.9766 134.077 27.7514C133.594 28.1105 132.08 29.6075 130.713 31.0783C129.345 32.5489 128.098 33.752 127.94 33.752C127.783 33.752 125.735 32.2093 123.389 30.3236C121.043 28.4382 119.053 26.8953 118.966 26.8953C118.758 26.8953 112.924 32.8145 112.92 33.0309C112.918 33.123 113.797 33.9778 114.873 34.9302C120.043 39.5049 120.243 40.0138 117.839 42.5028C117.023 43.3472 114.328 45.7792 111.849 47.9079L107.341 51.7781L100.945 51.7802C95.5502 51.7822 94.6024 51.7286 94.8953 51.4386C95.0861 51.2491 97.4313 48.9434 100.106 46.3148C102.781 43.6862 105.051 41.3901 105.152 41.2127C105.278 40.9901 103.472 39.276 99.3393 35.6939C91.464 28.8678 90.2594 27.5453 91.4665 27.0495C91.6726 26.9647 94.5816 26.8908 97.9307 26.8849L104.02 26.8748L104.753 26.1866C105.156 25.8081 107.103 23.9274 109.079 22.0068C111.056 20.0865 112.808 18.5178 112.973 18.5213C113.137 18.5247 114.98 19.8919 117.068 21.5594C119.156 23.2268 120.945 24.5954 121.044 24.6005C121.143 24.6054 122.411 23.4423 123.861 22.0154L126.499 19.4213L125.71 18.7776C125.276 18.4238 123.26 16.7573 121.231 15.0748C119.202 13.392 116.581 11.2291 115.407 10.2683C111.847 7.35617 107.213 3.52416 105.206 1.83266L103.308 0.233256L82.3067 0.230469L82.4322 15.8485ZM15.5877 29.8397L10.9479 33.546L10.6702 35.2362C9.26117 43.8063 7.82737 53.0438 7.82604 53.5602C7.82413 54.2193 8.79512 55.4293 14.5217 61.9014C16.053 63.632 17.252 65.1408 17.1868 65.2538C17.0613 65.4716 13.4515 68.647 11.1379 70.575C8.93108 72.4145 4.02742 76.6923 4.02742 76.7783C4.02742 76.8219 3.87213 77.815 3.68233 78.9855C3.49253 80.1561 3.01737 83.1137 2.62621 85.5582C2.23524 88.0023 1.53348 92.3869 1.06685 95.3022L0.21875 100.602L0.866398 101.524C1.22271 102.031 2.37706 103.532 3.43129 104.858C4.48588 106.185 6.01907 108.156 6.83835 109.239C7.65784 110.322 8.42406 111.207 8.54182 111.207C8.65916 111.207 10.6118 109.464 12.8812 107.334C19.5606 101.065 20.4486 100.292 20.753 100.487C21.0205 100.657 22.2046 102.087 26.6576 107.613C27.6873 108.891 28.6553 109.937 28.8083 109.937C29.0425 109.937 34.0129 105.387 36.7298 102.686L37.5243 101.896L35.0487 98.9966C33.6871 97.4018 32.0218 95.4526 31.3481 94.6648C30.6741 93.877 30.1229 93.1294 30.1229 93.0044C30.1229 92.7418 31.8529 91.1661 35.579 88.0347C36.4696 87.2864 37.5804 86.3211 40.3276 83.9074C41.2811 83.0693 43.1909 81.4292 44.5708 80.2628L47.0802 78.1416L52.59 78.2309C57.3448 78.3082 58.1534 78.3785 58.4949 78.7441C59.2399 79.5415 58.6171 80.2923 51.0534 87.709C48.9305 89.7907 47.2223 91.5775 47.258 91.6797C47.322 91.865 49.4096 94.2048 55.9631 101.436C57.865 103.534 60.356 106.334 61.4991 107.658L63.5771 110.064L46.879 110.198L45.32 111.782C44.462 112.653 41.6946 115.48 39.1697 118.064C36.6448 120.648 34.457 122.793 34.3081 122.83C34.0673 122.892 30.605 118.969 27.3732 114.974C26.7325 114.182 26.1439 113.525 26.0651 113.514C25.9327 113.495 24.7852 114.536 19.151 119.79C18.0093 120.855 17.0752 121.832 17.0752 121.961C17.0752 122.09 17.9432 123.294 19.004 124.637C20.0649 125.98 25.9012 133.393 31.9736 141.11L43.0143 155.141H57.6659C71.4184 155.141 72.3251 155.113 72.4319 154.696C72.4946 154.452 72.5823 148.081 72.6259 140.539L72.7057 126.825L67.3846 126.757C64.458 126.719 61.9849 126.776 61.8889 126.883C61.7925 126.991 61.6487 129.65 61.5689 132.793C61.4892 135.936 61.3645 139.227 61.2918 140.108L61.1596 141.708L55.9017 141.631C49.6971 141.541 49.6439 141.523 47.0797 138.771C44.9647 136.501 41.5098 132.087 41.5098 131.655C41.5098 131.475 43.4389 129.318 45.7966 126.863C51.4755 120.952 51.3118 121.038 57.2857 120.82C62.3331 120.636 63.7845 120.48 65.7786 119.908C67.6276 119.378 68.5543 118.444 68.5543 117.111C68.5543 115.907 67.8853 114.764 65.597 112.06L63.9839 110.153L67.8113 106.068C69.9159 103.821 71.6382 101.855 71.6382 101.698C71.6382 101.542 69.4464 99.0776 66.7675 96.2226L61.8972 91.0311L64.9293 87.9911C69.4443 83.4636 71.8302 80.8084 72.3243 79.763C73.0298 78.2696 73.2987 76.369 73.2987 72.8753C73.2987 70.1354 73.2388 69.589 72.9235 69.4593C72.7169 69.3745 68.7196 69.3052 64.0396 69.3052H55.531L54.036 70.6365C53.2141 71.3686 51.2258 73.1969 49.6186 74.6994C48.0113 76.2024 46.5716 77.4319 46.4191 77.4319C46.267 77.4319 44.6797 75.8691 42.8917 73.959C39.9268 70.7911 39.6044 70.5181 39.2184 70.848C38.6778 71.31 24.5897 84.1048 23.4684 85.1523C23.005 85.5853 22.0442 86.4662 21.3332 87.1102C20.6222 87.7547 18.1379 90.0222 15.8123 92.1496C13.487 94.2771 11.5185 95.9471 11.4379 95.8611C11.3575 95.7747 11.7585 92.3283 12.3296 88.2026L13.3677 80.7004L31.3375 64.6958L30.4336 63.6125C29.9367 63.0171 26.8796 59.6829 23.6407 56.2038L17.752 49.8779L17.8708 48.4813C18.0291 46.6227 19.2232 38.2248 19.3483 38.0908C19.4788 37.9508 21.5429 40.0538 29.657 48.5939C33.3805 52.5127 37.244 56.5665 38.2431 57.6024L40.0593 59.4864L41.1761 58.4916C41.7906 57.944 43.5175 56.4277 45.0142 55.1222L47.7358 52.7475L49.1893 54.2621C49.9888 55.0952 51.5437 56.7062 52.644 57.843L54.6451 59.909H73.2646L73.4316 58.4775C73.6282 56.7942 73.4075 53.4676 73.0186 52.2543C72.5744 50.8681 71.7384 49.8796 67.4884 45.7148C65.2691 43.5404 63.4537 41.6286 63.4537 41.466C63.4537 41.3039 65.4117 39.372 67.8042 37.1738C71.9831 33.3346 72.1377 33.1592 71.7184 32.7364C70.1789 31.1828 66.367 27.6572 66.2273 27.6572C66.0674 27.6572 64.9646 28.6012 58.1276 34.5921C56.5033 36.0157 54.2616 37.9696 53.1459 38.9347C52.0302 39.8995 51.1178 40.8228 51.1178 40.9868C51.1178 41.1508 52.9623 43.1444 55.2169 45.4177C57.4711 47.6906 59.4652 49.8592 59.6476 50.2369C60.3004 51.5882 60.0569 51.6555 54.5067 51.6555H49.4569L48.0604 50.8988C46.7581 50.1933 42.7936 46.9339 38.2761 42.8548C36.2174 40.9958 35.6041 39.9842 36.0248 39.1427C36.2372 38.7178 41.112 34.3587 42.7388 33.1389L43.2806 32.7326L42.6889 32.163C42.3636 31.8496 41.1911 30.7364 40.0836 29.6888C38.9761 28.6412 38.0339 27.697 37.9901 27.591C37.9459 27.4844 37.6989 27.2766 37.4406 27.1286C37.051 26.9052 36.7624 27.0309 35.7413 27.8688C35.065 28.4236 33.1784 29.9776 31.5491 31.3219C29.9196 32.6661 28.4606 33.7343 28.3066 33.6954C28.1526 33.6568 27.2391 32.8251 26.2763 31.8473C21.3607 26.8549 20.6229 26.1335 20.4329 26.1335C20.3197 26.1335 18.1394 27.8013 15.5877 29.8397ZM94.0564 110.549C93.2736 110.719 92.3004 111.045 91.8936 111.275C90.9508 111.808 88.1805 115.001 87.6786 116.133C86.0967 119.702 89.1379 120.835 100.345 120.851L104.973 120.858L115.153 131.763L114.541 132.468C114.205 132.857 113.675 133.507 113.364 133.914C109.908 138.435 107.838 140.572 106.33 141.177C105.154 141.648 104.579 141.685 99.4333 141.622L93.8191 141.554L93.832 140.284C93.8391 139.586 93.8927 136.272 93.9505 132.92L94.0564 126.825L83.6813 126.688L83.845 140.47C83.9352 148.05 84.0615 154.452 84.1263 154.696C84.236 155.113 85.1352 155.141 98.7576 155.137C106.741 155.135 113.383 155.049 113.518 154.946C113.653 154.844 116.662 151.046 120.206 146.506C123.75 141.967 129.433 134.711 132.835 130.38L139.022 122.508L137.652 121.126C135.039 118.489 130.124 114.001 129.849 114.001C129.696 114.001 129.267 114.387 128.895 114.86C124.209 120.804 122.494 122.888 122.291 122.882C122.047 122.874 121.236 122.108 117.779 118.62C115.62 116.44 112.681 113.484 110.728 111.525L109.398 110.191L102.439 110.216C98.0159 110.232 94.961 110.354 94.0564 110.549Z" fill="#E8E84D"/>
</g>
<defs>
<clipPath id="clip0_1312_27330">
<rect width="1269" height="155.405" fill="white"/>
</clipPath>
</defs>
</svg>
